<svg xmlns="http://www.w3.org/2000/svg" width="18" height="18" viewBox="0 0 18 18"><defs><style>.a{fill:#d2d2d2;}</style></defs><path class="a" d="M12.036-501.842a.719.719,0,0,0-.293.261c-.032.053-.046.947-.06,3.3l-.018,3.236-.18.074a2.518,2.518,0,0,0-1.459,1.754,2.11,2.11,0,0,0,.67,1.9,1.869,1.869,0,0,0,.6.447,1.979,1.979,0,0,0,.342.148,27.124,27.124,0,0,1,.056,3.253c.01,3.225.01,3.257.085,3.352a.5.5,0,0,0,.472.243.5.5,0,0,0,.472-.243c.074-.095.074-.127.085-3.352a27.061,27.061,0,0,1,.056-3.253,1.979,1.979,0,0,0,.342-.148,1.98,1.98,0,0,0,.6-.447,2.342,2.342,0,0,0,.62-.989,2.505,2.505,0,0,0,.018-1.074,2.59,2.59,0,0,0-1.428-1.592l-.18-.074-.018-3.239c-.018-3.2-.018-3.243-.092-3.338a.9.9,0,0,0-.162-.165A.688.688,0,0,0,12.036-501.842Zm.723,7.951a1.03,1.03,0,0,1,.518.51,1.559,1.559,0,0,1,0,1.028,1.038,1.038,0,0,1-.515.511,1.658,1.658,0,0,1-1.029,0,1.017,1.017,0,0,1-.515-.514,1.539,1.539,0,0,1,0-1.021,1.035,1.035,0,0,1,1.082-.606A1.221,1.221,0,0,1,12.758-493.892Z" transform="translate(-9.997 501.871)"/><path class="a" d="M379.857-501.723a2.466,2.466,0,0,0-1.851,1.926,2.1,2.1,0,0,0,.673,1.845,1.934,1.934,0,0,0,.6.447,2.109,2.109,0,0,0,.342.148c.042,0,.049,1.028.056,6.634l.01,6.637.074.1a.5.5,0,0,0,.472.243.5.5,0,0,0,.472-.243l.074-.1.01-6.637c.007-5.605.014-6.634.056-6.634a2.1,2.1,0,0,0,.342-.148,2.658,2.658,0,0,0,1.026-1,1.782,1.782,0,0,0,.257-1,2.016,2.016,0,0,0-.687-1.549,2.244,2.244,0,0,0-.941-.6A2.529,2.529,0,0,0,379.857-501.723Zm.888,1.194a1.03,1.03,0,0,1,.518.511,1.605,1.605,0,0,1,0,1.028,1.067,1.067,0,0,1-.518.514,1.554,1.554,0,0,1-1.026,0,1.066,1.066,0,0,1-.515-.518,1.538,1.538,0,0,1,0-1.021,1.035,1.035,0,0,1,1.082-.606A1.222,1.222,0,0,1,380.746-500.53Z" transform="translate(-371.228 501.748)"/><path class="a" d="M748.609-501.788a.6.6,0,0,0-.3.313c-.028.07-.039,2.106-.039,6.683,0,5.581-.007,6.581-.049,6.581a2.109,2.109,0,0,0-.342.148,2.634,2.634,0,0,0-1.026,1,1.783,1.783,0,0,0-.257,1,2.016,2.016,0,0,0,.687,1.549,2.02,2.02,0,0,0,1.551.687,2.021,2.021,0,0,0,1.551-.687,2.016,2.016,0,0,0,.687-1.549,1.781,1.781,0,0,0-.257-1,2.634,2.634,0,0,0-1.026-1,2.112,2.112,0,0,0-.342-.148c-.042,0-.049-1.028-.057-6.634l-.01-6.637-.074-.095a.9.9,0,0,0-.162-.166A.653.653,0,0,0,748.609-501.788Zm.74,14.7a1.03,1.03,0,0,1,.518.511,1.04,1.04,0,0,1,.081.514,1.04,1.04,0,0,1-.081.514,1.065,1.065,0,0,1-.518.514,1.552,1.552,0,0,1-1.026,0,1.065,1.065,0,0,1-.515-.518,1.537,1.537,0,0,1,0-1.021,1.035,1.035,0,0,1,1.082-.606A1.224,1.224,0,0,1,749.349-487.088Z" transform="translate(-733.076 501.827)"/></svg>