<svg xmlns="http://www.w3.org/2000/svg" width="83" height="102.984" viewBox="0 0 83 102.984"><defs><style>.a{fill:#a9d0df;}</style></defs><g transform="translate(0 0)"><path class="a" d="M106.625-500.711a4.287,4.287,0,0,0-2.228,2.7c-.074.447-.1,19.89-.074,43.25.074,42.432.074,42.457.594,43.126a6.786,6.786,0,0,0,1.188,1.191c.668.521.743.521,33.81.521s33.141,0,33.809-.521a6.786,6.786,0,0,0,1.188-1.191l.519-.669v-86.252l-.519-.669a6.782,6.782,0,0,0-1.188-1.191c-.668-.521-.768-.521-33.512-.571C113.283-501.034,107.244-500.984,106.625-500.711Zm54.452,49.872a1.934,1.934,0,0,1,.619,1.364,1.934,1.934,0,0,1-.619,1.364l-.594.62H119.347l-.594-.62a1.932,1.932,0,0,1-.619-1.364,1.934,1.934,0,0,1,.619-1.364l.594-.62h41.136Zm0,11.9a1.934,1.934,0,0,1,.619,1.364,1.934,1.934,0,0,1-.619,1.364l-.594.62H119.347l-.594-.62a1.932,1.932,0,0,1-.619-1.364,1.934,1.934,0,0,1,.619-1.364l.594-.62h41.136Zm0,11.9a1.934,1.934,0,0,1,.619,1.364,1.934,1.934,0,0,1-.619,1.364l-.594.62H119.347l-.594-.62a1.934,1.934,0,0,1-.619-1.364,1.934,1.934,0,0,1,.619-1.364l.594-.62h41.136Z" transform="translate(-104.314 501.001)"/><path class="a" d="M250.189-425.014a4.2,4.2,0,0,0-2.079,2.207c-.2.5-.273,13.565-.273,42.73v42.01l-32.4.049c-32.3.075-32.424.075-33.092.595a3.5,3.5,0,0,0-1.707,3.323,3.5,3.5,0,0,0,1.707,3.323c.668.521.717.521,35.789.521s35.121,0,35.789-.521a6.782,6.782,0,0,0,1.188-1.191l.52-.669v-90.22l-.52-.669a6.348,6.348,0,0,0-1.139-1.165A4.579,4.579,0,0,0,250.189-425.014Z" transform="translate(-172.635 433.241)"/></g></svg>