<svg xmlns="http://www.w3.org/2000/svg" width="87.323" height="97.913" viewBox="0 0 87.323 97.913"><defs><style>.a,.b{opacity:0.5;}.b{fill:#2ea5d2;}</style></defs><g class="a"><path class="b" d="M263.069,50.535s-11.1-15.5-2.957-31.179,34.226-8.362,35.515-1.748c0,0,6.8-.19,9.2,5.8,3.407,8.531-1.449,18.911-6.793,25.545,2.088-4.6.47-8.961-1.668-13.237l-1.3,5.055s.819-5.115-1.948-8.082a20.768,20.768,0,0,1-8.591,4.6c1.7-1.219,3.227-2.438,3.327-3.656-6.833,3.327-12.008,5.415-19.61,6.274,3.147-1.1,5.974-2.328,7.772-4.006C265.117,35.9,262.2,41.534,263.069,50.535Z" transform="translate(-237.735 -9.995)"/><path class="b" d="M78.774,588.9H90.013l9.65,30.52,1.419.45,2.717-17.6-2.108-4.4,3.616-3.127h2.717l3.616,3.127-2.108,4.4,2.717,17.6,1.4-.39,9.66-30.569h11.239c8.671,0,15.774,6.683,15.774,14.855v15.714c0,5.225-4.535,9.5-10.09,9.5H73.09c-5.544,0-10.09-4.276-10.09-9.5V603.755c0-8.172,7.1-14.855,15.774-14.855Z" transform="translate(-63 -531.067)"/></g></svg>