<svg xmlns="http://www.w3.org/2000/svg" width="72.455" height="81.028" viewBox="0 0 72.455 81.028"><defs><style>.a{fill:#cac8d5;}</style></defs><g transform="translate(-10.001 -19.71)"><path class="a" d="M-1920.912,704.205h0l-4.773-.05-4.793-.05-.675-.455a3.362,3.362,0,0,1-1.485-2.177l-.119-.625,2.262-.05c2.12-.067,2.313-.1,2.954-.523a3.024,3.024,0,0,0,1.485-2.835,3.023,3.023,0,0,0-1.485-2.835c-.644-.423-.836-.457-2.937-.507l-2.245-.068v-6.684l2.245-.068c2.1-.05,2.295-.083,2.937-.506a3.024,3.024,0,0,0,1.485-2.835,3.023,3.023,0,0,0-1.485-2.835c-.642-.422-.835-.456-2.937-.507l-2.245-.068v-6.684l2.245-.067c2.1-.05,2.295-.083,2.937-.506a3.024,3.024,0,0,0,1.485-2.835,3.023,3.023,0,0,0-1.485-2.835c-.642-.422-.835-.456-2.937-.507l-2.245-.067V660.34l2.245-.068c2.1-.05,2.294-.083,2.937-.506a3.022,3.022,0,0,0,1.485-2.835,3.023,3.023,0,0,0-1.485-2.835c-.642-.422-.834-.456-2.937-.507l-2.245-.068v-6.684l2.245-.067c1.971-.051,2.292-.083,2.869-.456a4.42,4.42,0,0,0,1.1-1.079,2.62,2.62,0,0,0,.455-1.789,3.016,3.016,0,0,0-1.485-2.852c-.642-.422-.834-.456-2.937-.507l-2.245-.068v-6.683l2.245-.068c1.971-.051,2.292-.083,2.869-.456a4.439,4.439,0,0,0,1.1-1.08,2.62,2.62,0,0,0,.455-1.789,3.016,3.016,0,0,0-1.485-2.852c-.641-.421-.834-.456-2.954-.523l-2.262-.05.119-.625a3.4,3.4,0,0,1,2.245-2.549,48.454,48.454,0,0,1,4.978-.151l4.506-.017v81.028Zm1.689-.015h0V623.178l25.873.033,25.856.051.641.4a4.422,4.422,0,0,1,1.1,1.079l.455.692v76.472l-.4.642a4.427,4.427,0,0,1-1.08,1.1l-.691.455-25.873.05Zm34.352-22.2h0c-.023,0-.447.888-.856,1.79-.442.966-.868,1.853-.912,1.9-.072.063-.206.073-1.192.086l-1.109.013.073.107c.041.058,1.721,1.6,4,3.667l1.4,1.273,2.63,2.39.107.1,3.9-3.469c2.106-1.879,4.017-3.6,4.172-3.761l.278-.287-2.06-.022c-1.969-.021-2.07-.026-2.155-.1a.473.473,0,0,1-.112-.149c-.009-.041-.215-1.3-.449-2.789-.375-2.381-.445-2.784-.463-2.784,0,0,0,.005,0,.016-.022.214-1.182,5.588-1.217,5.638a.462.462,0,0,1-.355.176.374.374,0,0,1-.185-.047,5.629,5.629,0,0,1-.522-.788,7.314,7.314,0,0,0-.476-.754c-.017.007-.421.708-.869,1.516s-.88,1.549-.93,1.594a.376.376,0,0,1-.249.077.393.393,0,0,1-.253-.077c-.046-.042-.507-1.142-1.122-2.673-.581-1.458-1.05-2.614-1.066-2.634Zm.012-1.488a.361.361,0,0,1,.26.1c.058.055.5,1.108,1.161,2.75.583,1.463,1.064,2.654,1.07,2.664.011-.006.236-.4.8-1.409.433-.786.831-1.478.886-1.543a.293.293,0,0,1,.283-.12c.229,0,.268.042.689.741a4.189,4.189,0,0,0,.346.532c.011-.016.334-1.523.7-3.291.4-1.908.708-3.342.733-3.409a.364.364,0,0,1,.351-.272.42.42,0,0,1,.283.117l.129.121.591,3.735.587,3.74h4.3l.292-.441a8.774,8.774,0,0,0,1.52-5.29,6.607,6.607,0,0,0-3.375-5.436,4.857,4.857,0,0,0-2.48-.587h-.022a5.46,5.46,0,0,0-3.182.959,7.779,7.779,0,0,0-1.371,1.282c-.267.34-.276.346-.446.346-.117,0-.168-.04-.343-.266a5.633,5.633,0,0,0-2.81-2.069,5.945,5.945,0,0,0-1.792-.274,4.729,4.729,0,0,0-.508.026,5.652,5.652,0,0,0-3.564,1.876,7.223,7.223,0,0,0-1.709,4.112,8.738,8.738,0,0,0,1.517,5.3l.3.463h2.493l.964-2.125c.509-1.124,1.005-2.165,1.062-2.228A.387.387,0,0,1-1884.859,680.5Zm-48.047,18.643a21.433,21.433,0,0,1-3.955-.219,1.569,1.569,0,0,1-.893-1.4,1.654,1.654,0,0,1,.826-1.54,20.306,20.306,0,0,1,4.184-.253,20.942,20.942,0,0,1,4.221.253,1.622,1.622,0,0,1,.836,1.451,1.622,1.622,0,0,1-.836,1.451A22.975,22.975,0,0,1-1932.906,699.142Zm0-13.5a21.435,21.435,0,0,1-3.955-.219,1.569,1.569,0,0,1-.893-1.4,1.654,1.654,0,0,1,.826-1.54,20.31,20.31,0,0,1,4.184-.253,20.947,20.947,0,0,1,4.221.253,1.622,1.622,0,0,1,.836,1.451,1.622,1.622,0,0,1-.836,1.451A22.975,22.975,0,0,1-1932.906,685.64Zm0-13.5a21.433,21.433,0,0,1-3.955-.219,1.569,1.569,0,0,1-.893-1.4,1.654,1.654,0,0,1,.826-1.54,20.3,20.3,0,0,1,4.184-.253,20.941,20.941,0,0,1,4.221.253,1.622,1.622,0,0,1,.836,1.451,1.622,1.622,0,0,1-.836,1.451A22.968,22.968,0,0,1-1932.906,672.138Zm0-13.5a21.435,21.435,0,0,1-3.955-.219,1.569,1.569,0,0,1-.893-1.4,1.654,1.654,0,0,1,.826-1.54,20.3,20.3,0,0,1,4.184-.253,20.942,20.942,0,0,1,4.221.253,1.622,1.622,0,0,1,.836,1.451,1.622,1.622,0,0,1-.836,1.451A22.968,22.968,0,0,1-1932.906,658.635Zm0-13.5a21.426,21.426,0,0,1-3.955-.219,1.569,1.569,0,0,1-.893-1.4,1.654,1.654,0,0,1,.826-1.54,20.3,20.3,0,0,1,4.184-.253,20.947,20.947,0,0,1,4.221.253,1.622,1.622,0,0,1,.836,1.451,1.622,1.622,0,0,1-.836,1.451A22.969,22.969,0,0,1-1932.906,645.134Zm0-13.5a21.47,21.47,0,0,1-3.951-.218,1.57,1.57,0,0,1-.893-1.4,1.654,1.654,0,0,1,.826-1.54,20.3,20.3,0,0,1,4.184-.253,20.941,20.941,0,0,1,4.221.253,1.622,1.622,0,0,1,.836,1.451,1.622,1.622,0,0,1-.836,1.451A23.012,23.012,0,0,1-1932.91,631.631Z" transform="translate(1947.757 -603.468)"/></g></svg>