<svg xmlns="http://www.w3.org/2000/svg" width="28.222" height="36.215" viewBox="0 0 28.222 36.215"><defs><style>.a{fill:none;}.b{fill:#faaa49;stroke:#616161;stroke-width:2px;}.c{fill:#fff;}</style></defs><g transform="translate(1)"><path class="a" d="M11.862,28.286C3.546,22.5,0,17.479,0,11.495V4.886a2.184,2.184,0,0,1,.142-.778A14.97,14.97,0,0,0,3.65,2.586,16.089,16.089,0,0,0,9.846,0q.059.05.115.105c.044.043,4.608,4.371,9.459,4.371a2.278,2.278,0,0,1,2.185,2.36v7.135c0,5.134-2.241,9.614-7.338,14.375a2.2,2.2,0,0,1-2.405-.06Z" transform="translate(1.078)"/><path class="b" d="M104.037,14.614h0c-4.851,0-9.415-4.008-9.459-4.049a2.188,2.188,0,0,0-2.931,0c-.069.062-4.586,4.052-9.462,4.052A2.184,2.184,0,0,0,80,16.8v6.609c0,5.984,3.546,11.007,11.862,16.791a2.172,2.172,0,0,0,1.249.39,2.195,2.195,0,0,0,1.249-.39c8.316-5.788,11.862-10.81,11.862-16.791V16.8A2.186,2.186,0,0,0,104.037,14.614Z" transform="translate(-80 -5.374)"/><path class="c" d="M3.92,9.985a1.155,1.155,0,0,1-.794-.474,1.225,1.225,0,0,1-.149-.273L.235,5.46a1.24,1.24,0,0,1,.23-1.695A1.139,1.139,0,0,1,2.1,4l2.221,3.06L13.039.244a1.138,1.138,0,0,1,1.633.238,1.241,1.241,0,0,1-.229,1.695L5.03,9.538a1.189,1.189,0,0,1-.216.22,1.128,1.128,0,0,1-.894.227Z" transform="translate(6.865 15.158)"/></g></svg>