<svg xmlns="http://www.w3.org/2000/svg" width="87.178" height="102.427" viewBox="0 0 87.178 102.427"><defs><style>.a{fill:#a49485;}</style></defs><g transform="translate(0)"><path class="a" d="M325.087-500.789a22.489,22.489,0,0,0-15.515,11.5c-1.688,3.437-2.251,6.27-2.211,11.174,0,2.613-.041,3.437-.281,3.818a5.209,5.209,0,0,0-.342,3.537c.482,3.095,1.949,6.15,3.6,7.476a3.815,3.815,0,0,1,1.226,1.869c3.215,8.924,10.289,14.65,16.8,13.646,5.647-.884,10.852-5.989,13.626-13.4a6.135,6.135,0,0,1,1.688-2.452,11.092,11.092,0,0,0,2.874-5.386c.542-1.99.623-4.421.161-5.144-.281-.4-.362-1.326-.442-5.1-.12-5.044-.362-6.672-1.487-9.586-1.427-3.637-4.281-6.37-7.095-6.733-.623-.081-.8-.2-.9-.643a6.324,6.324,0,0,0-.723-1.427c-1.427-2.09-3.918-3.216-7.415-3.336A18.917,18.917,0,0,0,325.087-500.789Zm-1.829,13.3a18.087,18.087,0,0,0,7.195-.02,9.933,9.933,0,0,1,5.326-.02c2.894,1.246,4.924,4.442,5.527,8.661a40.653,40.653,0,0,1-1.627,15.817c-1.246,3.738-3.818,7.818-6.109,9.687a11.841,11.841,0,0,1-6.733,2.934c-2.955,0-6.692-2.271-9.184-5.586-3.8-5.024-5.767-12.48-5.427-20.539.161-3.939.844-6.189,2.613-8.581C316.767-487.746,319.48-488.49,323.258-487.485Z" transform="translate(-283.237 501)"/><path class="a" d="M110.839,13.13c-.845.562-2.311,1.447-3.256,1.949l-1.729.884V39.517l1.306.643a6.255,6.255,0,0,1-.2,11.314,7.011,7.011,0,0,1-5.225-.04,6.687,6.687,0,0,1-3.075-3.2,6.245,6.245,0,0,1,3.276-8.28l1.106-.462V28.484c0-6.049-.061-11.013-.12-11.013s-2.25.965-4.863,2.171c-5.607,2.532-8.24,3.959-9.646,5.185-2.955,2.592-4.582,9.867-5.266,23.493-.4,8.18-.281,9.1,1.487,10.872,1.869,1.849-2.03,1.688,41.922,1.688s40.053.161,41.922-1.708c1.607-1.607,1.768-2.371,1.607-7.537-.483-14.53-2.051-23.112-4.744-26.207a22.949,22.949,0,0,0-5.346-3.5c-2.15-1.085-9.667-4.462-9.928-4.462a5.577,5.577,0,0,0-.2,2.211c0,1.628.061,2.211.261,2.211A10.088,10.088,0,0,1,153.4,23.6a12.713,12.713,0,0,1,3.055,4.562,85.676,85.676,0,0,1,2.352,9.707c1.627,7.677,1.729,8.3,1.527,9.225-.381,1.688-1.627,2.874-3.7,3.537a3.864,3.864,0,0,0-1.326.824,2.473,2.473,0,0,1-3.758-.664,2.417,2.417,0,0,1,3.336-3.2c.744.381.884.4,1.507.14a2.7,2.7,0,0,0,1-.8c.342-.5.3-.784-1.206-7.918-.844-4.059-1.768-8.079-2.03-8.923-2.391-7.335-8.682-7.4-11.274-.08-.322.945-3.476,15.715-3.476,16.338,0,.462.684,1.165,1.467,1.447.442.181.663.14,1.206-.181a2.84,2.84,0,0,1,1.246-.4,2.744,2.744,0,0,1,2.513,2.411,2.845,2.845,0,0,1-1.226,2.11,2.547,2.547,0,0,1-2.853-.281,6.539,6.539,0,0,0-1.829-1.045,4.617,4.617,0,0,1-3.336-3.979c0-.884,3.095-15.575,3.637-17.3,1.025-3.2,3.055-5.708,5.466-6.732l1.346-.583V15.9l-1.748-.941c-.985-.542-2.411-1.407-3.215-1.929-1.588-1.085-1.869-1.146-2.311-.643-.161.2-2.311,4.682-4.783,9.948-2.492,5.266-4.541,9.546-4.6,9.506-.04-.061-.342-1.607-.643-3.437l-.562-3.356.684-.8a5.5,5.5,0,0,0,1.226-5.225c-.623-1.749-1.788-2.352-4.542-2.352s-3.918.6-4.542,2.352a5.5,5.5,0,0,0,1.226,5.225l.684.8-.562,3.356c-.3,1.829-.6,3.376-.643,3.437-.061.04-2.13-4.24-4.6-9.506s-4.622-9.747-4.783-9.948C112.869,11.864,112.528,11.964,110.839,13.13Z" transform="translate(-82.957 41.543)"/></g></svg>