<?xml version="1.0"?>
<svg xmlns="http://www.w3.org/2000/svg" xmlns:xlink="http://www.w3.org/1999/xlink" version="1.1" id="Capa_1" x="0px" y="0px" viewBox="0 0 512 512" style="enable-background:new 0 0 512 512;" xml:space="preserve" width="512px" height="512px" class=""><g><g>
	<g>
		<path d="M442.409,52V0h-89.661v52H159.251V0h-89.66v52H0v460h512V52H442.409z M382.748,30h29.661v62h-29.661V30z M99.591,30h29.66    v62h-29.66V30z M482,482H30V184h452V482z M482,154H30V82h39.591v40h89.66V82h193.497v40h89.661V82H482V154z" data-original="#000000" class="active-path" data-old_color="#000000" fill="#007AFF"/>
	</g>
</g><g>
	<g>
		<rect x="231.22" y="223" width="49.564" height="30" data-original="#000000" class="active-path" data-old_color="#000000" fill="#007AFF"/>
	</g>
</g><g>
	<g>
		<rect x="315.66" y="223" width="49.564" height="30" data-original="#000000" class="active-path" data-old_color="#000000" fill="#007AFF"/>
	</g>
</g><g>
	<g>
		<rect x="400.1" y="223" width="49.564" height="30" data-original="#000000" class="active-path" data-old_color="#000000" fill="#007AFF"/>
	</g>
</g><g>
	<g>
		<rect x="62.33" y="288" width="49.564" height="30" data-original="#000000" class="active-path" data-old_color="#000000" fill="#007AFF"/>
	</g>
</g><g>
	<g>
		<rect x="146.78" y="288" width="49.564" height="30" data-original="#000000" class="active-path" data-old_color="#000000" fill="#007AFF"/>
	</g>
</g><g>
	<g>
		<rect x="231.22" y="288" width="49.564" height="30" data-original="#000000" class="active-path" data-old_color="#000000" fill="#007AFF"/>
	</g>
</g><g>
	<g>
		<rect x="315.66" y="288" width="49.564" height="30" data-original="#000000" class="active-path" data-old_color="#000000" fill="#007AFF"/>
	</g>
</g><g>
	<g>
		<rect x="400.1" y="288" width="49.564" height="30" data-original="#000000" class="active-path" data-old_color="#000000" fill="#007AFF"/>
	</g>
</g><g>
	<g>
		<rect x="62.33" y="353" width="49.564" height="30" data-original="#000000" class="active-path" data-old_color="#000000" fill="#007AFF"/>
	</g>
</g><g>
	<g>
		<rect x="146.78" y="353" width="49.564" height="30" data-original="#000000" class="active-path" data-old_color="#000000" fill="#007AFF"/>
	</g>
</g><g>
	<g>
		<rect x="231.22" y="353" width="49.564" height="30" data-original="#000000" class="active-path" data-old_color="#000000" fill="#007AFF"/>
	</g>
</g><g>
	<g>
		<rect x="315.66" y="353" width="49.564" height="30" data-original="#000000" class="active-path" data-old_color="#000000" fill="#007AFF"/>
	</g>
</g><g>
	<g>
		<rect x="400.1" y="353" width="49.564" height="30" data-original="#000000" class="active-path" data-old_color="#000000" fill="#007AFF"/>
	</g>
</g><g>
	<g>
		<rect x="62.33" y="418" width="49.564" height="30" data-original="#000000" class="active-path" data-old_color="#000000" fill="#007AFF"/>
	</g>
</g><g>
	<g>
		<rect x="146.78" y="418" width="49.564" height="30" data-original="#000000" class="active-path" data-old_color="#000000" fill="#007AFF"/>
	</g>
</g><g>
	<g>
		<rect x="231.22" y="418" width="49.564" height="30" data-original="#000000" class="active-path" data-old_color="#000000" fill="#007AFF"/>
	</g>
</g><g>
	<g>
		<rect x="315.66" y="418" width="49.564" height="30" data-original="#000000" class="active-path" data-old_color="#000000" fill="#007AFF"/>
	</g>
</g></g> </svg>
