<svg xmlns="http://www.w3.org/2000/svg" width="47.696" height="65.39" viewBox="0 0 47.696 65.39"><defs><style>.a{fill:#b8b8b8;}</style></defs><g transform="translate(-144.499 -7.998)"><path class="a" d="M181.184,21.014a6.327,6.327,0,0,0,1.942-4.67,6.443,6.443,0,0,0-3.543-5.7,6.379,6.379,0,0,0-8.907,7.459,15.522,15.522,0,0,0-16.567,11.443l-.087.327c-3.116,11.456-4.043,12.5-10.655,22.2l-.133.193c-1.521,2.228-.567,5.324,1.842,5.985l.173.107a65.788,65.788,0,0,0,37.1,10.362l.547-.013c2.409.667,4.791-1.508,4.61-4.2l-.02-.234c-.781-11.743-1.054-13.124,2.062-24.58l.087-.327A15.663,15.663,0,0,0,181.184,21.014ZM153.434,67.258l-.08-.033A10.672,10.672,0,0,0,160.861,75a10.565,10.565,0,0,0,10.215-2.656l-1.421-.207A57.525,57.525,0,0,1,153.434,67.258Z" transform="translate(2 -2)"/></g></svg>