<svg xmlns="http://www.w3.org/2000/svg" xmlns:xlink="http://www.w3.org/1999/xlink" width="63.437" height="62.224" viewBox="0 0 63.437 62.224"><defs><style>.a{fill:url(#a);}</style><radialGradient id="a" cx="0.5" cy="0.5" r="0.378" gradientTransform="translate(0 -0.077) scale(1 1.154)" gradientUnits="objectBoundingBox"><stop offset="0" stop-color="#55c7f2"/><stop offset="1" stop-color="#2ea5d2"/><stop offset="1" stop-color="#28a0cd"/></radialGradient></defs><g transform="translate(-9.973 -19.4)"><path class="a" d="M-101.75-616.816a1.4,1.4,0,0,1,.375-.958l-.026-.025c3.113-4.473,3.625-13.147,3.625-13.147v-.006a1.143,1.143,0,0,1,1.132-1.158,1.156,1.156,0,0,1,1.153,1.158,1,1,0,0,1-.058.343c-1.036,10.292-3.2,13.639-3.548,14.1a1.33,1.33,0,0,1-1.294,1.055A1.364,1.364,0,0,1-101.75-616.816Zm-5.9-.2a1.149,1.149,0,0,1,.394-.88c.544-1,2.227-3.982,2.227-3.982l.052.046a1.072,1.072,0,0,1,.706-.279,1.119,1.119,0,0,1,1.113,1.12,1.047,1.047,0,0,1-.091.453l.026.02a8.615,8.615,0,0,1-2.259,4.072,1.129,1.129,0,0,1-1,.6A1.171,1.171,0,0,1-107.647-617.017Zm-4.512-.738a1.374,1.374,0,0,1,.375-.958h-.046s5.716-9.67,4.078-19.5c0,0-2.783-12.4,3.173-14.053,0,0,6.466-2.318,8.615,4.984a54.778,54.778,0,0,1,.454,11.328h-.013a1.138,1.138,0,0,1-1.127,1.113A1.156,1.156,0,0,1-97.8-636a1.127,1.127,0,0,1,.071-.394l-.045-.013s1.935-14.746-4.532-14.513c0,0-5.664-.22-3.625,9.516,0,0,2.732,12.441-3.566,23.911a1.327,1.327,0,0,1-1.3,1.1A1.36,1.36,0,0,1-112.159-617.755Zm16.752-.634a1.165,1.165,0,0,1,.363-.854c3.851-13.173,2.253-27.575,2.253-27.575-2.7-11.535-12.694-7.7-12.694-7.7l-.02-.051c-.065.006-.122.019-.181.019a1.231,1.231,0,0,1-1.23-1.237,1.207,1.207,0,0,1,1.133-1.229c7.864-2.822,12.984,3.851,12.984,3.851,5.762,10.1.667,31.1-.3,34.792a1.141,1.141,0,0,1-1.138,1.159A1.166,1.166,0,0,1-95.407-618.389Zm-21.289-2.162a1.257,1.257,0,0,1,.337-.88s5.327-9.775,3.172-18.59c0,0-1.981-10.189,2.265-13.6l.026.019a1.072,1.072,0,0,1,.738-.3,1.11,1.11,0,0,1,1.107,1.106,1.185,1.185,0,0,1-.11.486l.058.045s-3.981,3.412-.906,14.959c0,0-.019,10.345-4.531,17.684l-.032-.032a1.219,1.219,0,0,1-.861.363A1.268,1.268,0,0,1-116.7-620.551Zm27.193-.026a1.212,1.212,0,0,1,.35-.861c3.559-19.483-.007-29.005-.007-29.005l.046-.013a1.252,1.252,0,0,1-.077-.44,1.363,1.363,0,0,1,1.353-1.385,1.375,1.375,0,0,1,1.308.964l.09-.026c3.211,20.721-.906,31.738-.906,31.738l-.1-.1a1.174,1.174,0,0,1-.835.349A1.215,1.215,0,0,1-89.5-620.577Zm-32.171-1.683a1.394,1.394,0,0,1,.375-.958l-.045-.026a34.574,34.574,0,0,0,2.719-5.891l.058.019a1.15,1.15,0,0,1,1.081-.763,1.188,1.188,0,0,1,1.192,1.191,1.158,1.158,0,0,1-.085.446l.026.013a41.556,41.556,0,0,1-2.66,6.252,1.337,1.337,0,0,1-1.3,1.082A1.365,1.365,0,0,1-121.675-622.26ZM-83.29-624.5a1.324,1.324,0,0,1,.1-.537l-.077-.02a139.932,139.932,0,0,0,0-22.668c-.609-10.706-9.976-15.406-9.976-15.406l.052-.058a1.108,1.108,0,0,1-.292-.744,1.09,1.09,0,0,1,1.081-1.113,1.1,1.1,0,0,1,.5.129l.013-.019C-83.342-661.848-81-650.43-81-650.43c1.444,10.777.453,25.84.453,25.84l-.025-.006c0,.025.013.065.013.1a1.364,1.364,0,0,1-1.353,1.385A1.381,1.381,0,0,1-83.29-624.5Zm-20.869-.816a1.463,1.463,0,0,1,.142-.615l-.1-.032c3.295-8.673.454-20.4.454-20.4l.077-.019a1.642,1.642,0,0,1-.013-.175,1.378,1.378,0,0,1,1.365-1.4,1.37,1.37,0,0,1,1.211.724l.077-.025c2.479,13.14-.453,22.215-.453,22.215l-.091-.026a1.324,1.324,0,0,1-1.307,1.139A1.372,1.372,0,0,1-104.159-625.315Zm-20.7-1.035a1.422,1.422,0,0,1,.368-.952l-.032-.019a26.052,26.052,0,0,0,.905-15.872s-1.417-11.159,4.984-17.23a22.363,22.363,0,0,1,21.763-6.8l-.007.02a1.186,1.186,0,0,1,.732,1.1,1.161,1.161,0,0,1-1.152,1.184,1.22,1.22,0,0,1-.454-.09l-.025.065s-15.108-3.256-22.216,10.875a19.9,19.9,0,0,0-.453,12.693s2.168,10.189-2.266,16.313l-.1-.123a1.273,1.273,0,0,1-.692.2A1.36,1.36,0,0,1-124.859-626.351Zm-4.1-3.605a1.416,1.416,0,0,1,.382-.965l-.026-.026a23.329,23.329,0,0,0,0-10.875s-2.738-17.982,11.328-26.746l.013.013a1.183,1.183,0,0,1,.848-.356,1.231,1.231,0,0,1,1.23,1.237,1.2,1.2,0,0,1-.344.86l.059.058s-11.425,5.891-10.881,22.215c0,0,2.156,9.93.065,14.8a1.315,1.315,0,0,1-1.308,1.146A1.366,1.366,0,0,1-128.963-629.956Zm51.557-1a1.283,1.283,0,0,1,.077-.446,48.153,48.153,0,0,0-.013-5.975,1.082,1.082,0,0,1-.064-.382,1.363,1.363,0,0,1,1.353-1.385,1.381,1.381,0,0,1,1.308.958l.09-.013a40.686,40.686,0,0,1,0,7.249h-.019a1.354,1.354,0,0,1-1.354,1.379A1.381,1.381,0,0,1-77.405-630.953Zm-40.793-3.353a2.191,2.191,0,0,1,.026-.278,22.124,22.124,0,0,0-.906-12.234,16.585,16.585,0,0,1,14.046-15.872,17.951,17.951,0,0,1,16.06,6.052,1.4,1.4,0,0,1,.693,1.2,1.364,1.364,0,0,1-1.354,1.385,1.355,1.355,0,0,1-1.294-.926c-1.489-1.6-6.926-6.763-14.1-4.977,0,0-9.67,1.165-11.334,12.686,0,0,2.576,8.648.906,13.147l-.065-.014a1.321,1.321,0,0,1-1.314,1.2A1.367,1.367,0,0,1-118.2-634.307Zm-13.878-2.589-.155.052c-3.755-6.978-.454-19.044-.454-19.044l.123.059a1.409,1.409,0,0,1,1.256-.751,1.485,1.485,0,0,1,1.463,1.476,1.447,1.447,0,0,1-.137.615c-2.744,8.188.466,16.733.466,16.733l-.019.006a1.427,1.427,0,0,1,.1.525,1.342,1.342,0,0,1-1.334,1.365A1.359,1.359,0,0,1-132.077-636.9Zm53.771-6.3a1.389,1.389,0,0,1,.071-.433l-.045-.02a25.009,25.009,0,0,0-8.157-21.3c-9.735-9-25.846-3.618-25.846-3.618l-.006-.032c-.032,0-.065.013-.1.013a1.146,1.146,0,0,1-1.139-1.146,1.138,1.138,0,0,1,.8-1.1v-.006c17.768-6.61,29.012,4.984,29.012,4.984,8.881,6.978,8.157,23.575,8.157,23.575l-.253-.13a1.333,1.333,0,0,1-1.12.6A1.382,1.382,0,0,1-78.305-643.194Zm4.978-4.531a1.392,1.392,0,0,1,.013-.168c-.22-2.039-2.926-23.037-23.562-26.578l.007-.058a1.376,1.376,0,0,1-.952-1.308,1.36,1.36,0,0,1,1.354-1.385,1.361,1.361,0,0,1,.582.136c3.567.738,23.729,5.936,25.3,29.368H-70.6a1.354,1.354,0,0,1-1.353,1.379A1.381,1.381,0,0,1-73.327-647.725Zm-57.364-12.351a1.288,1.288,0,0,1,.311-.835,31.873,31.873,0,0,1,26.746-16.7,1.471,1.471,0,0,1,.388-.065,1.381,1.381,0,0,1,1.379,1.385,1.4,1.4,0,0,1-.906,1.314l.006.058a1.515,1.515,0,0,0-.168-.007,1.4,1.4,0,0,1-.291.026,1.1,1.1,0,0,1-.33-.045c-3.308,0-16.228,1-25.037,15.891l-.085-.085a1.233,1.233,0,0,1-.783.3A1.231,1.231,0,0,1-130.692-660.075Z" transform="translate(144 697.075)"/></g></svg>