<svg xmlns="http://www.w3.org/2000/svg" width="87.778" height="61.68" viewBox="0 0 87.778 61.68"><defs><style>.a{fill:#ffc36e;}.b{fill:#ffd380;}.c{fill:#fcfcfc;}.d{fill:#f6d9a0;}</style></defs><g transform="translate(0 -52.966)"><path class="a" d="M53.367,65.073H31.381A3.027,3.027,0,0,1,28.673,63.4l-2.19-4.38,2.19-4.38a3.026,3.026,0,0,1,2.707-1.673H53.367a3.027,3.027,0,0,1,2.707,1.673l2.19,4.38-2.19,4.38A3.026,3.026,0,0,1,53.367,65.073Z" transform="translate(-21.943)"/><path class="b" d="M53.367,65.073H31.381A3.027,3.027,0,0,1,28.673,63.4l-2.19-4.38,2.19-4.38a3.026,3.026,0,0,1,2.707-1.673H53.367a3.027,3.027,0,0,1,2.707,1.673l2.19,4.38-2.19,4.38A3.026,3.026,0,0,1,53.367,65.073Z" transform="translate(-21.943)"/><path class="c" d="M97.866,70.621h-78.7a1.514,1.514,0,0,0-1.513,1.513V79.7H99.38V72.134A1.513,1.513,0,0,0,97.866,70.621Z" transform="translate(-14.628 -14.628)"/><path class="d" d="M0,55.626V3.027A3.027,3.027,0,0,1,3.027,0H3.6A1.513,1.513,0,0,1,4.958.837L6.73,4.38A3.026,3.026,0,0,0,9.437,6.053H31.424A3.027,3.027,0,0,0,34.132,4.38L35.9.837A1.513,1.513,0,0,1,37.257,0H84.751a3.027,3.027,0,0,1,3.027,3.027V55.4a8.016,8.016,0,0,1-1.89.225Z" transform="translate(0 59.02)"/></g></svg>