<svg xmlns="http://www.w3.org/2000/svg" width="111.341" height="78.238" viewBox="0 0 111.341 78.238"><defs><style>.a{fill:#ffc36e;}.b{fill:#ffd380;}.c{fill:#fcfcfc;}.d{fill:rgba(202,200,213,0.5);}.e{fill:#f6d9a0;}</style></defs><g transform="translate(0 -52.966)"><path class="a" d="M60.584,68.323H32.7A3.839,3.839,0,0,1,29.261,66.2l-2.778-5.556,2.778-5.556A3.839,3.839,0,0,1,32.7,52.966H60.584a3.839,3.839,0,0,1,3.434,2.122L66.8,60.645,64.018,66.2A3.839,3.839,0,0,1,60.584,68.323Z" transform="translate(-20.724)"/><path class="b" d="M60.584,68.323H32.7A3.839,3.839,0,0,1,29.261,66.2l-2.778-5.556,2.778-5.556A3.839,3.839,0,0,1,32.7,52.966H60.584a3.839,3.839,0,0,1,3.434,2.122L66.8,60.645,64.018,66.2A3.839,3.839,0,0,1,60.584,68.323Z" transform="translate(-20.724)"/><path class="c" d="M119.4,70.621H19.575a1.92,1.92,0,0,0-1.92,1.92v9.6H121.318v-9.6A1.92,1.92,0,0,0,119.4,70.621Z" transform="translate(-13.816 -13.816)"/><rect class="d" width="103.663" height="3.839" transform="translate(3.839 64.484)"/><path class="e" d="M-2248-3764.8v-66.72a3.839,3.839,0,0,1,3.839-3.839h.733a1.921,1.921,0,0,1,1.717,1.061l2.248,4.5a3.838,3.838,0,0,0,3.434,2.122h27.888a3.841,3.841,0,0,0,3.435-2.122l2.247-4.5a1.921,1.921,0,0,1,1.717-1.061h60.244a3.839,3.839,0,0,1,3.839,3.839v66.716c-.083,0-.166,0-.249,0Z" transform="translate(2248 3896)"/><path class="c" d="M319.713,151.61h28.8a1.92,1.92,0,0,0,1.92-1.92V134.333a1.92,1.92,0,0,0-1.92-1.92h-28.8a1.92,1.92,0,0,0-1.92,1.92V149.69A1.92,1.92,0,0,0,319.713,151.61Z" transform="translate(-248.684 -62.17)"/><path class="d" d="M358.484,153.908H337.368a1.92,1.92,0,0,1-1.92-1.92h0a1.92,1.92,0,0,1,1.92-1.92h21.116a1.92,1.92,0,0,1,1.92,1.92h0A1.92,1.92,0,0,1,358.484,153.908Z" transform="translate(-262.5 -75.986)"/><path class="d" d="M358.484,189.218H337.368a1.92,1.92,0,0,1-1.92-1.92h0a1.92,1.92,0,0,1,1.92-1.92h21.116a1.92,1.92,0,0,1,1.92,1.92h0A1.92,1.92,0,0,1,358.484,189.218Z" transform="translate(-262.5 -103.617)"/></g></svg>