<svg xmlns="http://www.w3.org/2000/svg" width="16" height="16" viewBox="0 0 16 16"><defs><style>.a{fill:none;}.b{fill:#007aff;}</style></defs><path class="a" d="M0,0H16V16H0Z"/><path class="b" d="M14.943,3H4.405A1.419,1.419,0,0,0,3,4.424v9.969a1.419,1.419,0,0,0,1.405,1.424H14.943a1.419,1.419,0,0,0,1.405-1.424V4.424A1.419,1.419,0,0,0,14.943,3Zm0,1.424V6.56H4.405V4.424ZM11.43,14.393H7.918V7.984H11.43ZM4.405,7.984H6.513v6.409H4.405Zm8.43,6.409V7.984h2.108v6.409Z" transform="translate(-1.409 -1.409)"/></svg>